<?xml version="1.0" encoding="UTF-8" standalone="no"?>
<!-- Created with Inkscape (http://www.inkscape.org/) -->

<svg
   xmlns:dc="http://purl.org/dc/elements/1.1/"
   xmlns:cc="http://creativecommons.org/ns#"
   xmlns:rdf="http://www.w3.org/1999/02/22-rdf-syntax-ns#"
   xmlns:svg="http://www.w3.org/2000/svg"
   xmlns="http://www.w3.org/2000/svg"
   xmlns:xlink="http://www.w3.org/1999/xlink"
   xmlns:sodipodi="http://sodipodi.sourceforge.net/DTD/sodipodi-0.dtd"
   xmlns:inkscape="http://www.inkscape.org/namespaces/inkscape"
   width="1200"
   height="1200"
   id="svg3005"
   version="1.1"
   inkscape:version="0.92.2 (5c3e80d, 2017-08-06)"
   sodipodi:docname="lime remix 2.svg">
  <defs
     id="defs3007">
    <linearGradient
       inkscape:collect="always"
       id="linearGradient5822">
      <stop
         style="stop-color:#c2c3b1;stop-opacity:1;"
         offset="0"
         id="stop5818" />
      <stop
         id="stop5826"
         offset="0.8975094557"
         style="stop-color:#c2c3b1;stop-opacity:1" />
      <stop
         style="stop-color:#c2c3b1;stop-opacity:0;"
         offset="1"
         id="stop5820" />
    </linearGradient>
    <linearGradient
       inkscape:collect="always"
       id="linearGradient5644">
      <stop
         style="stop-color:#8dca2e;stop-opacity:1;"
         offset="0"
         id="stop5640" />
      <stop
         id="stop5650"
         offset="0.969750464"
         style="stop-color:#a5d03f;stop-opacity:1" />
      <stop
         id="stop5648"
         offset="0.9759944081"
         style="stop-color:#8ac22d;stop-opacity:1" />
      <stop
         style="stop-color:#7ead28;stop-opacity:1"
         offset="1"
         id="stop5642" />
    </linearGradient>
    <linearGradient
       inkscape:collect="always"
       id="linearGradient5636">
      <stop
         style="stop-color:#a0b52c;stop-opacity:1"
         offset="0"
         id="stop5632" />
      <stop
         id="stop5652"
         offset="0.4824158847"
         style="stop-color:#b2c243;stop-opacity:1" />
      <stop
         style="stop-color:#b0c13d;stop-opacity:1"
         offset="0.7919954062"
         id="stop5654" />
      <stop
         style="stop-color:#a0b030;stop-opacity:1"
         offset="1"
         id="stop5634" />
    </linearGradient>
    <linearGradient
       inkscape:collect="always"
       id="linearGradient1930">
      <stop
         style="stop-color:#eff2ef;stop-opacity:1"
         offset="0"
         id="stop1926" />
      <stop
         id="stop1936"
         offset="0.8982880116"
         style="stop-color:#f4fad9;stop-opacity:1" />
      <stop
         id="stop1934"
         offset="0.9590629339"
         style="stop-color:#eaf9d3;stop-opacity:1" />
      <stop
         style="stop-color:#b2de6d;stop-opacity:1"
         offset="1"
         id="stop1928" />
    </linearGradient>
    <radialGradient
       inkscape:collect="always"
       xlink:href="#linearGradient1930"
       id="radialGradient1932"
       cx="598.9240112304689"
       cy="520.7369995117189"
       fx="598.9240112304689"
       fy="520.7369995117189"
       r="484.9667968750001"
       gradientUnits="userSpaceOnUse" />
    <radialGradient
       inkscape:collect="always"
       xlink:href="#linearGradient5636"
       id="radialGradient5638"
       cx="602.1901245117188"
       cy="600.7344360351562"
       fx="602.1901245117188"
       fy="600.7344360351562"
       r="421.9462579661124"
       gradientTransform="matrix(0.9999999276742535,2.694344017023972e-16,-2.70291398698054e-16,1.003180653402887,4.355385054264988e-5,-1.910728104553072)"
       gradientUnits="userSpaceOnUse" />
    <radialGradient
       inkscape:collect="always"
       xlink:href="#linearGradient5644"
       id="radialGradient5646"
       cx="600"
       cy="522.5196533203123"
       fx="600"
       fy="522.5196533203123"
       r="500"
       gradientUnits="userSpaceOnUse" />
    <radialGradient
       inkscape:collect="always"
       xlink:href="#linearGradient5636"
       id="radialGradient5680"
       gradientUnits="userSpaceOnUse"
       gradientTransform="matrix(0.9999999276742535,2.694344017023972e-16,-2.70291398698054e-16,1.003180653402887,3.842435118530585,-77.46987232221317)"
       cx="602.1901245117188"
       cy="600.7344360351562"
       fx="602.1901245117188"
       fy="600.7344360351562"
       r="421.9462579661124" />
    <radialGradient
       inkscape:collect="always"
       xlink:href="#linearGradient5636"
       id="radialGradient5682"
       gradientUnits="userSpaceOnUse"
       gradientTransform="matrix(0.9999999276742535,2.694344017023972e-16,-2.70291398698054e-16,1.003180653402887,-1.523259554338114,-77.86776499636448)"
       cx="602.1901245117188"
       cy="600.7344360351562"
       fx="602.1901245117188"
       fy="600.7344360351562"
       r="421.9462579661124" />
    <radialGradient
       inkscape:collect="always"
       xlink:href="#linearGradient5636"
       id="radialGradient5684"
       gradientUnits="userSpaceOnUse"
       gradientTransform="matrix(0.9999999276742535,2.694344017023972e-16,-2.70291398698054e-16,1.003180653402887,-2.716937578225515,-71.24012470617479)"
       cx="602.1901245117188"
       cy="600.7344360351562"
       fx="602.1901245117188"
       fy="600.7344360351562"
       r="421.9462579661124" />
    <radialGradient
       inkscape:collect="always"
       xlink:href="#linearGradient5822"
       id="radialGradient5824"
       cx="600"
       cy="522.5196533203123"
       fx="600"
       fy="522.5196533203123"
       r="500"
       gradientUnits="userSpaceOnUse"
       gradientTransform="translate(0,59.77358484259583)" />
  </defs>
  <sodipodi:namedview
     id="base"
     pagecolor="#003af6"
     bordercolor="#ffffff"
     borderopacity="1"
     inkscape:pageopacity="0.7450980392"
     inkscape:pageshadow="2"
     inkscape:zoom="0.4416666666666667"
     inkscape:cx="600"
     inkscape:cy="600"
     inkscape:document-units="px"
     inkscape:current-layer="layer1"
     showgrid="false"
     inkscape:window-width="1366"
     inkscape:window-height="705"
     inkscape:window-x="-8"
     inkscape:window-y="-8"
     inkscape:window-maximized="1"
     inkscape:snap-global="false"
     guidecolor="#00ffe4"
     guideopacity="1"
     guidehicolor="#f000ff"
     guidehiopacity="1"
     inkscape:pagecheckerboard="true"
     borderlayer="true"
     inkscape:showpageshadow="false"
     inkscape:snap-center="true"
     showguides="true"
     inkscape:guide-bbox="true"
     inkscape:snap-bbox="false"
     inkscape:snap-bbox-edge-midpoints="false"
     inkscape:bbox-nodes="false"
     inkscape:bbox-paths="false"
     inkscape:snap-smooth-nodes="true" />
  <metadata
     id="metadata3010">
    <rdf:RDF>
      <cc:Work
         rdf:about="">
        <dc:format>image/svg+xml</dc:format>
        <dc:type
           rdf:resource="http://purl.org/dc/dcmitype/StillImage" />
        <dc:title></dc:title>
        <dc:date>2017</dc:date>
        <dc:creator>
          <cc:Agent>
            <dc:title>Lazur URH</dc:title>
          </cc:Agent>
        </dc:creator>
        <dc:publisher>
          <cc:Agent>
            <dc:title></dc:title>
          </cc:Agent>
        </dc:publisher>
        <cc:license
           rdf:resource="http://creativecommons.org/publicdomain/zero/1.0/" />
        <dc:subject>
          <rdf:Bag />
        </dc:subject>
        <dc:description></dc:description>
      </cc:Work>
      <cc:License
         rdf:about="http://creativecommons.org/publicdomain/zero/1.0/">
        <cc:permits
           rdf:resource="http://creativecommons.org/ns#Reproduction" />
        <cc:permits
           rdf:resource="http://creativecommons.org/ns#Distribution" />
        <cc:permits
           rdf:resource="http://creativecommons.org/ns#DerivativeWorks" />
      </cc:License>
    </rdf:RDF>
  </metadata>
  <g
     inkscape:label="plant"
     inkscape:groupmode="layer"
     id="layer1"
     transform="translate(0,77.48034000000006)">
    <path
       style="color:#000000;clip-rule:nonzero;display:inline;overflow:visible;visibility:visible;opacity:1;isolation:auto;mix-blend-mode:normal;color-interpolation:sRGB;color-interpolation-filters:linearRGB;solid-color:#000000;solid-opacity:1;vector-effect:none;fill:#ffffff;fill-opacity:1;fill-rule:evenodd;stroke:none;stroke-width:11.9999990463;stroke-linecap:butt;stroke-linejoin:miter;stroke-miterlimit:4;stroke-dasharray:none;stroke-dashoffset:0;stroke-opacity:1;marker:none;paint-order:markers fill stroke;color-rendering:auto;image-rendering:auto;shape-rendering:auto;text-rendering:auto;enable-background:accumulate"
       d="m 0,-77.48034000000029 h 1200 v 1199.99999999999931 h -1200 z"
       id="rect960"
       inkscape:connector-curvature="0" />
    <path
       id="path5816"
       d="m 1100,582.2932381629078 a 500,500 0 0 1 -500,499.9999999999992 500,500 0 0 1 -500,-499.9999999999989 500,500 0 0 1 499.9999999999997,-500.00000000000011 500,500 0 0 1 500.0000000000003,499.99999999999977 z"
       style="fill:url(#radialGradient5824);fill-opacity:1;stroke:none;stroke-width:1.0162017345"
       inkscape:connector-curvature="0" />
    <g
       id="g5831">
      <path
         id="use4089"
         d="m 1100,522.5196533203125 a 500,500 0 0 1 -500,499.9999999999996 500,500 0 0 1 -500,-499.9999999999994 500,500 0 0 1 499.9999999999998,-500.00000000000011 500,500 0 0 1 500.0000000000002,499.99999999999977 z"
         style="fill:url(#radialGradient5646);fill-opacity:1;stroke:none;stroke-width:1.0162017345" />
      <path
         id="use4105"
         d="m 1083.890808105469,520.7369995117187 a 484.966796875,484.966796875 0 0 1 -484.9667968750002,484.9667968750002 484.966796875,484.966796875 0 0 1 -484.966796875,-484.9667968750002 484.966796875,484.966796875 0 0 1 484.9667968749998,-484.966796875 484.966796875,484.966796875 0 0 1 484.9667968750003,484.96679687499988 z"
         style="fill:url(#radialGradient1932);fill-opacity:1;stroke:none;stroke-width:0.9897896647" />
      <path
         d="m 554.3440913496292,416.9622212609362 c 4.6045648808032,8.2330778080262 9.6950912822698,17.3380266046817 18.8270477737176,21.2277184915056 7.1527385367151,3.0466580826237 15.2799290337822,0.4113340159781 21.0393925546706,-4.3529725251817 7.6346895044867,-6.3155189739514 9.9783982022167,-16.4674922487496 10.9457182643066,-25.7681528506602 4.7154984503103,-45.3389238722087 10.065107853619,-44.0077879396675 20.965484284926,-116.5760618741154 6.6874255980183,-44.520933361477 13.2999140875438,-89.0540865686462 19.5852970984987,-133.6327624035771 1.413717617413,-10.0267015198517 -0.1304510408437,-20.7538583198533 -5.6550407406031,-29.4305808639085 -5.9374503715451,-9.3251467154629 -15.8639960579842,-15.3032739823516 -26.1398135170298,-18.7700581472373 -8.7970295089319,-2.9678809224807 -18.0181359733076,-4.3014713363258 -27.1432966143526,-5.8038540715544 -18.3615607377013,-3.0230801329776 -37.121047896704,-5.1186066095061 -55.7202391540028,-3.1211763650461 -11.2103933808954,1.2039221749763 -22.0355833984805,4.6687642811629 -32.5304825044947,8.6465089606515 -13.5197678351309,5.1242212079292 -26.7590367997548,11.2651949134647 -38.7827205578394,19.3398119187232 -7.9751013656652,5.3557537275177 -15.883983326016,11.3806170187729 -20.9878950111393,19.7171373708728 -4.7154821792528,7.7020755025773 -6.2999522767549,16.9929932824307 -5.2651793003682,25.8908351343122 1.2774743299363,10.9847906903242 1.771078411616,12.1407463752716 10.8765559249509,30.9349798375565 27.0410211462492,55.81423530363 76.2280725052831,151.3400854230951 109.9851714987594,211.6986273876589 z m 159.8005145238601,-307.6625318042194 c -15.1991425203256,-0.7077637056187 -30.7462192131021,4.5072266598417 -42.526605140284,14.3720289517386 -9.6993243643725,8.1221377475197 -16.31911910801,19.7876866138904 -18.1695192025062,32.3859563203101 -7.220548531659,49.1604048771392 -14.0777698325387,98.3721000923147 -21.4357636622268,147.5107897591544 -6.0215461515354,40.2135275597834 8.1154590087009,-56.6672258777143 -4.1576572155659,17.5018476993171 -4.4816879600464,27.0838015369511 -11.1255149503271,53.7656705671223 -15.7675512962934,80.8197179112157 -1.9657684165347,11.4566082307113 -4.1506789272413,23.7306612041514 0.052444015542,34.9971730277778 2.9781985436955,7.9830900885889 10.8663708557644,13.546656468956 19.454046014613,13.7137469288159 8.4068163233595,0.1635714881439 16.2771880663897,-3.5301625820773 22.3461396281367,-9.0638723315478 11.862028153338,-10.8158748958157 24.3092307294145,-27.4335787289781 35.9431448051214,-38.4441059040263 76.6273704481346,-72.5214007238906 122.0320102490257,-110.310485942225 171.4960032842248,-157.7300108900507 8.8110985744095,-8.4469142709453 14.1391685590643,-20.5663550913394 14.1460823984321,-32.8762124860747 0.00728891148,-12.9776606240931 -5.2487358045438,-25.5279329355493 -13.0212566855522,-35.7049289356743 -11.5834336186034,-15.1668370415421 -27.1875132194124,-26.7472816157609 -43.4698021588896,-36.46833274689 -7.7001222622589,-4.5972210974512 -15.558197870018,-9.0049595738492 -23.8130541673629,-12.5111019436149 -11.5223235635582,-4.8939564044664 -23.7483498809663,-7.8993970291779 -35.8982742791944,-10.8255410531175 -14.8547223748341,-3.5775578250299 -29.9052200355491,-6.9659440738087 -45.1783763381947,-7.6771543073334 z m -330.1211683734892,57.6242674182829 c -6.0410966363336,0.069231583042 -11.8555988220931,1.909764212512 -17.3790985059281,4.2379058938897 -21.8133988133474,9.1942945409221 -41.0693300131342,23.3849680930549 -58.8097885021497,38.8450698530872 -12.9146396648058,11.2545931964318 -23.8888724305224,24.907148640094 -31.1925621775175,40.4612426918599 -2.9058309198238,6.188319738535 -5.503234266572,12.5651403348975 -7.227583697824,19.1855546893057 -3.3202642186374,12.7477206737241 -1.0047463368419,26.6189517434582 5.4499674357713,38.0457444167194 5.1921093126788,9.1916014780729 13.1783646763877,16.3729480863552 21.8520564063586,22.3767452065308 73.3762951094495,50.7899523042807 162.2703667853855,99.0234283689126 199.0895688773526,117.518213632786 9.820947032277,4.9331950756602 18.8128050440757,12.3479749182061 29.8899220282984,14.0204327381118 9.0303347697261,1.3634282298819 19.2014779541706,-1.9714062450029 24.2403687898569,-10.0561893248257 4.6435233957192,-7.4504252234624 5.697822655006,-16.7765992284358 2.8985142225779,-25.0375782143339 -4.0157143793458,-11.8506884474917 -10.6593795735314,-22.5689871871807 -17.0064551114657,-33.2696550106344 -22.3984618022988,-37.7620367160032 -56.7522836680154,-106.2114727313232 -95.0750034691947,-177.8135447908762 -6.7787920101151,-12.6654777245233 -14.2559623174871,-25.2769005003297 -24.7351184447884,-35.2612838780802 -7.1964967584869,-6.8567145808882 -16.3486452685807,-11.9884354004718 -26.3576401868044,-13.0023439897847 -1.8727291861835,-0.1897069808549 -3.7548561200453,-0.2718851666614 -5.6371476645432,-0.2503139137554 z m 510.1282310518162,74.416310765827 c -8.2052944505331,-0.2672623906835 -15.9005640906921,3.5256090625959 -22.163412710981,8.8348211496389 -64.9916314291862,55.0954327752141 -119.3752777726901,105.5679446209564 -175.3989257655985,157.5876233195911 -13.3669371696699,12.4116119114393 -25.8321852372585,25.8359811117755 -37.3346982285735,40.0240209338672 -5.124868872985,6.3213876574457 -9.2119776437524,14.1993393298567 -8.1577608823533,22.6576733959846 0.8504498083445,6.8234435733178 4.753973433391,13.2125580954782 11.0277068505958,16.1757625177231 8.683926061748,4.1015845585746 18.4968836751377,1.3045658846686 27.1157201187925,-1.4369775167456 70.4414759508727,-22.4065469673896 162.7512705553086,-53.9102832351796 261.891762891834,-82.9547061771729 8.2384706868604,-2.4135610121057 16.7089864248944,-4.9101170794354 23.7417124922514,-10.0694112112479 5.2165226698131,-3.8269050352691 8.6767617834116,-9.7114137325118 9.8345233626643,-16.0349165107868 1.4310311476129,-7.8160560860641 0.8360440022236,-15.8475022733387 -0.197079932855,-23.6630091942104 -2.0443224868559,-15.4651499225002 -6.620850737168,-30.5486950272071 -12.7335089014117,-44.8928979328819 -1.674252821652,-3.92886720374 -3.8853528360612,-7.5757240672577 -6.3863634363969,-11.0250106446149 -10.2199902100041,-14.0949722673532 -21.8928508389887,-27.1737953537154 -34.9637448733672,-38.6847986644398 -5.1151176193713,-4.5046754794632 -10.9148489695534,-8.2189178068463 -17.0005644879194,-11.2647530869416 -5.9843053881481,-2.9950805986701 -12.5387187286283,-5.0339946644585 -19.2753664966815,-5.2534203777631 z m -628.7122154268165,86.909861109173 c -10.3748247945674,-0.3081153601691 -20.4514787808226,3.7823329248979 -28.5768984184847,10.0561988031458 -7.0206376196991,5.4208324948062 -12.5981604223772,12.3730503285874 -17.8605726230347,19.439495620077 -10.6800975314962,14.3413936492203 -21.3697972947167,28.9365283451235 -28.5962921234075,45.3925390517904 -3.3308585409595,7.5849557927868 -5.463281335166,15.6197782976506 -7.0132659281754,23.7430925108431 -3.1041827749907,16.2687114247181 -3.7730557207737,32.9282859870368 -2.5910671613424,49.4222322934128 0.5758310177948,8.0353788649395 1.1817187702063,16.0886468272522 2.4472657730613,24.0468605897188 1.7898603042194,11.2552839790208 6.5461763588074,22.4596201404165 15.2642123809245,30.1204557958591 6.6755159167019,5.8660035612844 15.5136611988342,8.5552920308377 24.2469806232848,9.1543990883157 8.2666950846543,0.567096555906 16.4660391831604,-0.7997571286908 24.700573089436,-1.2085337067199 65.3265699776036,-3.2429244974597 164.9981047687382,-18.7937039490406 237.0117315140435,-27.5929514435283 8.7908041429328,-1.074136449242 18.2709082452851,-3.9138163824629 23.6758781253949,-11.5927415359895 4.3844786338094,-6.2290972962047 5.282525941486,-14.3319476313136 2.7696288892298,-21.4274694580047 -3.5539615918568,-10.0351154551269 -12.6001096996934,-16.6109363927457 -21.3422063625888,-21.7308883329989 -25.2305901515423,-14.7767079204707 -122.3657247583622,-74.6180183419512 -197.0285104428542,-119.1620844641047 -8.1961482964226,-4.8898493180473 -17.4602289804016,-8.3740978781459 -27.1074573354871,-8.6606048118167 z m 418.4434504051924,166.0139891534394 c -8.5390518108331,3.1485815361885 -15.7932832661777,10.7883275619048 -17.2711079432313,20.0718931553831 -1.5979846532972,10.0384000731622 5.3140851790788,19.6164874921459 13.8156381107159,24.3403008134077 10.8526869443881,6.0302003141809 20.5101925854043,8.9228929595283 32.0208833417106,13.3273039036528 56.7308027222764,21.7072783613862 120.6754402693257,42.5756904835772 172.3900280902028,60.0060159043834 17.820027261105,6.006213860672 35.8074526934884,11.5193975716313 53.8431560861859,16.8414250923381 12.274056927463,3.6218642176791 25.2191408122045,6.2358381976659 38.0800339283104,4.6034293462601 9.7887293882267,-1.2424649169459 18.9613655018833,-6.4476331800364 24.9640217910905,-14.2958925944855 4.042827432253,-5.2858529503385 6.428967909911,-11.5537239956666 8.280861938628,-17.8791151596089 5.066425386782,-17.3050519507991 8.583673238346,-35.055944197573 10.681320862316,-52.9614427343231 1.223075465797,-10.4401595925393 0.688061723278,-20.9702980442748 0.01533934449,-31.4214636296756 -1.326857359229,-20.6135642380314 -3.677047111159,-41.2567746114959 -8.600614019021,-61.3322859740546 -2.86745772271,-11.6918650992649 -7.468858576319,-23.2971711009227 -15.2608106439671,-32.6697673903816 -6.0094290293673,-7.2284777592858 -14.8155490681612,-13.5975503740696 -24.2440404710204,-12.8823109700269 -21.5986034441196,1.6384564184725 -206.9857457215412,54.1162095866705 -288.7147104164103,84.2519102371309 z m -189.9272024937238,26.2000157597234 c -103.1927852895325,11.3043725924897 -226.6349943879159,29.5176488628616 -278.9230677751269,31.9984778748071 -9.7132754246796,0.460850322331 -19.4041945106835,4.3105763689972 -26.810666254297,10.7903624832984 -5.0887201257869,4.4520277875996 -8.4063901672791,10.7295584808151 -9.402074273589,17.4337426941214 -2.2950635124573,15.4532230365468 -1.0540937707387,31.231077154676 2.0867768800037,46.4518818161605 4.3421889294436,21.0424486862254 12.7882492296019,41.0799997786321 23.4283842633591,59.6792774382691 5.750793390866,10.0525606771504 12.1828725171037,19.8066646668533 19.9763651415411,28.396785621396 7.3712829305576,8.1247542039237 18.2978284107408,12.520436813325 29.1901783359278,12.865561939146 11.9518664410317,0.3786960056912 24.1809541589291,-2.7292172532095 34.0725023634815,-9.3679998910188 51.9608549461664,-34.8738958279118 160.0936695588508,-113.372763581811 219.4849728198223,-153.6915125909444 7.6938393524379,-5.2230875689741 14.6661493783328,-12.9168216041609 15.7381672404446,-22.6346313514214 1.0351701078822,-9.3837859610287 -6.1549682827066,-17.925487093305 -14.9539490487754,-20.2434990846582 -4.5273023805697,-1.1926769117523 -9.2503131310586,-2.186442754494 -13.8875896927919,-1.6784469491557 z m 178.2106861272724,31.1365314079191 c -10.1982960733958,-0.1127793439146 -21.0170603094103,4.5512085640821 -25.9462995876331,13.9922270047332 -4.2585678278176,8.1564750915652 -4.7017529960126,17.9285985319057 -1.5306591044201,26.3368370017306 31.6279808151198,83.8624191221974 66.7612267889142,157.3965344312529 107.1566075076351,243.1370217928575 6.4551058814972,13.7011686584706 18.0231202446223,25.1501719040848 31.9065665247647,31.6832615194419 12.3092296037662,5.7923154290901 26.7801100236462,6.358007683276 39.6352915753223,2.0719098084612 6.7700319237139,-2.2572236202197 13.0522113207362,-5.6939339836905 19.4094300592302,-8.8810121275149 19.1702740540104,-9.6106747245791 38.1635469583624,-20.3371625833812 53.7859251383691,-35.2279258073852 7.2727516168256,-6.9321598200553 13.7364829481166,-14.664273205143 20.0776853857379,-22.4432189604629 19.2705187402879,-23.6397310182409 35.0605664182357,-49.9253105755569 48.8600532806521,-77.0387938702396 6.5879959845473,-12.9442145822793 10.338586860105,-27.7035492162046 9.0038471213808,-42.3501008184694 -1.0004135630558,-10.9778771469722 -5.7737589960057,-21.5650070870854 -13.5277173802738,-29.436261565013 -8.1064250417004,-8.2290529878162 -18.7687586848897,-13.33118478386 -29.6998265917849,-16.7051174217524 -68.2937587735129,-21.0792343120439 -124.3727377456852,-41.8180940393803 -225.2591256440209,-77.7239635097254 -10.8831437024022,-3.8733544271528 -22.2184068546989,-7.2859925397814 -33.8717782849593,-7.4148630466616 z m -137.5004587393147,21.3828752917501 c -10.823490478995,-0.251189176583 -22.3749297217738,0.48064498674 -30.8790817455202,6.2268136264562 -52.6337304406464,35.5640739258633 -155.2070332930179,111.5859518002097 -211.6840506878426,153.5959866597799 -9.5366067310302,7.0937382973292 -17.9008851962848,16.6371015843666 -20.8921835973422,28.3466122796134 -2.5957479854493,10.1611189264963 -0.9008330245203,21.0132107934613 3.3892552744204,30.486929234743 6.6911425285236,14.7759197360509 15.2674785213006,28.7421705198313 25.8187387337801,41.069632762992 4.647195767432,5.4295059742562 9.9456641979723,10.2718825474916 15.7622528838821,14.4298679883805 16.9370343964027,12.1074303573637 57.0774275836848,30.8632296562203 76.9709935564607,36.9055174314772 8.144452887158,2.4737208092096 16.4618738042411,4.6373266203973 24.9686601790306,5.3628463492405 10.2304963656713,0.872530074477 21.1138693736282,-1.1548195701315 29.374341370008,-7.5590808866166 7.7669865643528,-6.0216669969395 12.1281152442139,-15.1018261052404 16.6726468193931,-23.6075385254462 29.0264140125618,-54.3269039055891 71.1121408241211,-186.6040042401613 93.5279312282253,-245.1205686847437 3.1678941476166,-8.2698079657587 4.9227398529141,-18.5608355878477 1.2015920895501,-27.0452655586953 -3.6492930436658,-8.3205970955846 -15.2832992817406,-12.8840941847202 -24.2310961040455,-13.0917526771808 z m 72.9371017681507,4.6127516423505 c -10.892513733334,-0.4552958260044 -21.0077010412308,1.2528610233087 -27.1610751474815,9.6420828167566 -9.1628090040474,12.4921442542994 -22.9089551541382,50.8162876767636 -27.7635608597302,65.4318462717932 -14.5086702949859,43.6806475524994 -43.4120615417336,130.3253960335069 -70.9753961185684,206.4321077838056 -4.4011148830576,12.1521719678402 -13.0193753448189,26.7853491465437 -10.1616662251522,39.5092647304144 2.7740315114322,12.3513420367217 10.747306113714,23.2244912779485 21.2366275266016,30.2039595432876 6.6876629435074,4.4498904596583 14.1202724307058,7.6261427728906 21.5205367396371,10.667584439208 14.4500288924411,5.9388311171424 28.5518979525906,5.992447982179 54.4147432899922,8.18738088307 20.5865227224697,1.7471409448185 41.3123712564062,0.510921533711 61.7997497897377,-1.812339113446 27.6971181836177,-3.1408422805763 55.2120393727423,-8.5583380448636 81.7546586106481,-17.155168689151 9.0907112246365,-2.9443704908635 17.7891245423,-7.2963549051568 25.3797902319468,-13.1310898627913 8.716313436105,-6.6999892745522 15.6960581809541,-16.1918332218012 17.6677814703927,-27.1717085910791 2.123475418784,-11.8249328254434 -0.5182990649588,-24.0511196517898 -5.5132335572738,-34.7523356103668 -38.2900328691013,-82.0330900082247 -71.839125310035,-161.2112931414624 -110.2663814076982,-246.9278709879908 -4.9483705533613,-11.0379306987902 -7.4593242666501,-17.4593170201416 -18.4783004470921,-23.3493811070366 -3.5030018077457,-1.872488406024 -9.4774591337766,-5.6081057560335 -13.4542738959599,-5.7743325064738 z"
         style="color:#000000;fill:url(#radialGradient5680);fill-opacity:1;stroke:none;stroke-width:2.2028577328"
         id="path3040" />
    </g>
  </g>
</svg>
